<svg width="16" height="16" viewBox="0 0 16 16" fill="none" xmlns="http://www.w3.org/2000/svg">
<g id="hamburger">
<g id="slice3" filter="url(#filter0_di)">
<path id="outline" fill-rule="evenodd" clip-rule="evenodd" d="M1 11C1 10.4477 1.44772 10 2 10H14C14.5523 10 15 10.4477 15 11V12C15 12.5523 14.5523 13 14 13H11.9852C11.8741 13 11.7821 12.975 11.7821 12.875C11.7821 12.7829 11.5694 12.7832 11.1113 12.7838C11.0722 12.7838 11.0312 12.7839 10.9885 12.7839C10.9301 12.7839 10.8758 12.7838 10.8255 12.7838C10.2532 12.7832 10.1844 12.7831 10.1844 12.875C10.1844 12.975 10.0963 13 9.98518 13H2C1.44772 13 1 12.5523 1 12V11ZM11.7821 10.125C11.7821 10.025 11.8741 10 11.9852 10H9.98518C10.0963 10 10.1844 10.025 10.1844 10.125C10.1844 10.2169 10.2532 10.2168 10.8255 10.2162L10.9885 10.2161L11.1113 10.2162C11.5694 10.2168 11.7821 10.2171 11.7821 10.125Z" fill="#A82C2C"/>
<g id="inner" filter="url(#filter1_i)">
<rect x="10.1836" y="10.1082" width="1.604" height="2.75902" fill="#A82C2C"/>
</g>
<g id="stripes">
<path d="M10.1836 10.1477L10.2521 10.1082H10.3476L10.1836 10.2029V10.1477Z" fill="#9C2828"/>
<path d="M10.1836 10.2525L10.4335 10.1082H10.529L10.1836 10.3076V10.2525Z" fill="#9C2828"/>
<path d="M10.1836 10.3572L10.6149 10.1082H10.7104L10.1836 10.4123V10.3572Z" fill="#9C2828"/>
<path d="M10.1836 10.4619L10.7964 10.1082H10.8918L10.1836 10.5171V10.4619Z" fill="#9C2828"/>
<path d="M10.1836 10.5671L10.9786 10.1082H11.074L10.1836 10.6223V10.5671Z" fill="#9C2828"/>
<path d="M10.1836 10.6719L11.16 10.1082H11.2555L10.1836 10.727V10.6719Z" fill="#9C2828"/>
<path d="M10.1836 10.7766L11.3414 10.1082H11.4369L10.1836 10.8317V10.7766Z" fill="#9C2828"/>
<path d="M10.1836 10.8814L11.5228 10.1082H11.6183L10.1836 10.9365V10.8814Z" fill="#9C2828"/>
<path d="M10.1836 10.9866L11.705 10.1082H11.7876V10.1156L10.1836 11.0417V10.9866Z" fill="#9C2828"/>
<path d="M11.7431 12.8672L11.7876 12.8415V12.7864L11.6477 12.8672H11.7431Z" fill="#9C2828"/>
<path d="M10.1948 12.8672L11.7876 11.9476V12.0027L10.2903 12.8672H10.1948Z" fill="#9C2828"/>
<path d="M10.3762 12.8672L11.7876 12.0523V12.1074L10.4717 12.8672H10.3762Z" fill="#9C2828"/>
<path d="M10.5584 12.8672L11.7876 12.1575V12.2126L10.6539 12.8672H10.5584Z" fill="#9C2828"/>
<path d="M10.7398 12.8672L11.7876 12.2622V12.3174L10.8353 12.8672H10.7398Z" fill="#9C2828"/>
<path d="M10.9212 12.8672L11.7876 12.367V12.4221L11.0167 12.8672H10.9212Z" fill="#9C2828"/>
<path d="M11.1026 12.8672L11.7876 12.4717V12.5268L11.1981 12.8672H11.1026Z" fill="#9C2828"/>
<path d="M11.2848 12.8672L11.7876 12.5769V12.632L11.3803 12.8672H11.2848Z" fill="#9C2828"/>
<path d="M11.4662 12.8672L11.7876 12.6817V12.7368L11.5617 12.8672H11.4662Z" fill="#9C2828"/>
<path d="M10.1836 12.824L11.7876 11.898V11.8428L10.1836 12.7689V12.824Z" fill="#9C2828"/>
<path d="M10.1836 12.7193L11.7876 11.7932V11.7381L10.1836 12.6642V12.7193Z" fill="#9C2828"/>
<path d="M10.1836 12.6141L11.7876 11.688V11.6329L10.1836 12.559V12.6141Z" fill="#9C2828"/>
<path d="M10.1836 12.5094L11.7876 11.5833V11.5282L10.1836 12.4543V12.5094Z" fill="#9C2828"/>
<path d="M10.1836 12.4046L11.7876 11.4786V11.4235L10.1836 12.3495V12.4046Z" fill="#9C2828"/>
<path d="M10.1836 12.2999L11.7876 11.3738V11.3187L10.1836 12.2448V12.2999Z" fill="#9C2828"/>
<path d="M10.1836 12.1947L11.7876 11.2686V11.2135L10.1836 12.1396V12.1947Z" fill="#9C2828"/>
<path d="M10.1836 12.09L11.7876 11.1639V11.1088L10.1836 12.0349V12.09Z" fill="#9C2828"/>
<path d="M10.1836 11.9852L11.7876 11.0592V11.004L10.1836 11.9301V11.9852Z" fill="#9C2828"/>
<path d="M10.1836 11.8805L11.7876 10.9544V10.8993L10.1836 11.8254V11.8805Z" fill="#9C2828"/>
<path d="M10.1836 11.7753L11.7876 10.8492V10.7941L10.1836 11.7202V11.7753Z" fill="#9C2828"/>
<path d="M10.1836 11.6706L11.7876 10.7445V10.6894L10.1836 11.6154V11.6706Z" fill="#9C2828"/>
<path d="M10.1836 11.5658L11.7876 10.6398V10.5846L10.1836 11.5107V11.5658Z" fill="#9C2828"/>
<path d="M10.1836 11.4611L11.7876 10.535V10.4799L10.1836 11.406V11.4611Z" fill="#9C2828"/>
<path d="M10.1836 11.3559L11.7876 10.4298V10.3747L10.1836 11.3008V11.3559Z" fill="#9C2828"/>
<path d="M10.1836 11.2512L11.7876 10.3251V10.27L10.1836 11.196V11.2512Z" fill="#9C2828"/>
<path d="M10.1836 11.1464L11.7876 10.2203V10.1652L10.1836 11.0913V11.1464Z" fill="#9C2828"/>
</g>
</g>
<g id="slice1" filter="url(#filter2_di)">
<path id="outline_2" fill-rule="evenodd" clip-rule="evenodd" d="M1 4C1 3.44772 1.44772 3 2 3H14C14.5523 3 15 3.44772 15 4V5C15 5.55228 14.5523 6 14 6H11.9852C11.8741 6 11.7821 5.975 11.7821 5.875C11.7821 5.78287 11.5694 5.78316 11.1113 5.78378C11.0722 5.78383 11.0312 5.78388 10.9885 5.78388C10.9301 5.78388 10.8758 5.78382 10.8255 5.78377C10.2532 5.78316 10.1844 5.78308 10.1844 5.875C10.1844 5.975 10.0963 6 9.98518 6H2C1.44772 6 1 5.55228 1 5V4ZM11.7821 3.12501C11.7821 3.02501 11.8741 3.00001 11.9852 3.00001H9.98518C10.0963 3.00001 10.1844 3.02501 10.1844 3.12501C10.1844 3.21692 10.2532 3.21685 10.8255 3.21624L10.9885 3.21612L11.1113 3.21623C11.5694 3.21685 11.7821 3.21713 11.7821 3.12501Z" fill="#F5EE9E"/>
<g id="inner_2" filter="url(#filter3_i)">
<rect x="10.1836" y="3.10817" width="1.604" height="2.75902" fill="#F5EE9E"/>
</g>
<g id="stripes_2">
<path d="M10.1836 3.14774L10.2521 3.10817H10.3476L10.1836 3.20286V3.14774Z" fill="#DDD689"/>
<path d="M10.1836 3.25247L10.4335 3.10817H10.529L10.1836 3.3076V3.25247Z" fill="#DDD689"/>
<path d="M10.1836 3.35721L10.6149 3.10817H10.7104L10.1836 3.41233V3.35721Z" fill="#DDD689"/>
<path d="M10.1836 3.46195L10.7964 3.10817H10.8918L10.1836 3.51707V3.46195Z" fill="#DDD689"/>
<path d="M10.1836 3.56715L10.9786 3.10817H11.074L10.1836 3.62227V3.56715Z" fill="#DDD689"/>
<path d="M10.1836 3.67188L11.16 3.10817H11.2555L10.1836 3.72701V3.67188Z" fill="#DDD689"/>
<path d="M10.1836 3.77662L11.3414 3.10817H11.4369L10.1836 3.83174V3.77662Z" fill="#DDD689"/>
<path d="M10.1836 3.88136L11.5228 3.10817H11.6183L10.1836 3.93648V3.88136Z" fill="#DDD689"/>
<path d="M10.1836 3.98656L11.705 3.10817H11.7876V3.11561L10.1836 4.04168V3.98656Z" fill="#DDD689"/>
<path d="M11.7431 5.86719L11.7876 5.84152V5.78639L11.6477 5.86719H11.7431Z" fill="#DDD689"/>
<path d="M10.1948 5.86719L11.7876 4.94757V5.00269L10.2903 5.86719H10.1948Z" fill="#DDD689"/>
<path d="M10.3762 5.86719L11.7876 5.05231V5.10743L10.4717 5.86719H10.3762Z" fill="#DDD689"/>
<path d="M10.5584 5.86719L11.7876 5.15751V5.21263L10.6539 5.86719H10.5584Z" fill="#DDD689"/>
<path d="M10.7398 5.86719L11.7876 5.26225V5.31737L10.8353 5.86719H10.7398Z" fill="#DDD689"/>
<path d="M10.9212 5.86719L11.7876 5.36698V5.4221L11.0167 5.86719H10.9212Z" fill="#DDD689"/>
<path d="M11.1026 5.86719L11.7876 5.47172V5.52684L11.1981 5.86719H11.1026Z" fill="#DDD689"/>
<path d="M11.2848 5.86719L11.7876 5.57692V5.63204L11.3803 5.86719H11.2848Z" fill="#DDD689"/>
<path d="M11.4662 5.86719L11.7876 5.68166V5.73678L11.5617 5.86719H11.4662Z" fill="#DDD689"/>
<path d="M10.1836 5.82403L11.7876 4.89796V4.84283L10.1836 5.76891V5.82403Z" fill="#DDD689"/>
<path d="M10.1836 5.71929L11.7876 4.79322V4.7381L10.1836 5.66417V5.71929Z" fill="#DDD689"/>
<path d="M10.1836 5.61409L11.7876 4.68802V4.6329L10.1836 5.55897V5.61409Z" fill="#DDD689"/>
<path d="M10.1836 5.50939L11.7876 4.58331V4.52819L10.1836 5.45426V5.50939Z" fill="#DDD689"/>
<path d="M10.1836 5.40465L11.7876 4.47858V4.42345L10.1836 5.34953V5.40465Z" fill="#DDD689"/>
<path d="M10.1836 5.29991L11.7876 4.37384V4.31872L10.1836 5.24479V5.29991Z" fill="#DDD689"/>
<path d="M10.1836 5.19471L11.7876 4.26864V4.21352L10.1836 5.13959V5.19471Z" fill="#DDD689"/>
<path d="M10.1836 5.08998L11.7876 4.1639V4.10878L10.1836 5.03485V5.08998Z" fill="#DDD689"/>
<path d="M10.1836 4.98524L11.7876 4.05917V4.00404L10.1836 4.93012V4.98524Z" fill="#DDD689"/>
<path d="M10.1836 4.8805L11.7876 3.95443V3.89931L10.1836 4.82538V4.8805Z" fill="#DDD689"/>
<path d="M10.1836 4.7753L11.7876 3.84923V3.79411L10.1836 4.72018V4.7753Z" fill="#DDD689"/>
<path d="M10.1836 4.67056L11.7876 3.74449V3.68937L10.1836 4.61544V4.67056Z" fill="#DDD689"/>
<path d="M10.1836 4.56583L11.7876 3.63976V3.58463L10.1836 4.5107V4.56583Z" fill="#DDD689"/>
<path d="M10.1836 4.46109L11.7876 3.53502V3.4799L10.1836 4.40597V4.46109Z" fill="#DDD689"/>
<path d="M10.1836 4.35589L11.7876 3.42982V3.37469L10.1836 4.30077V4.35589Z" fill="#DDD689"/>
<path d="M10.1836 4.25115L11.7876 3.32508V3.26996L10.1836 4.19603V4.25115Z" fill="#DDD689"/>
<path d="M10.1836 4.14642L11.7876 3.22035V3.16522L10.1836 4.09129V4.14642Z" fill="#DDD689"/>
</g>
</g>
<g id="slice2" filter="url(#filter4_di)">
<path id="outline_3" fill-rule="evenodd" clip-rule="evenodd" d="M1 7.50639C1 6.95411 1.44772 6.50639 2 6.50639H14C14.5523 6.50639 15 6.95411 15 7.50639V8.50639C15 9.05868 14.5523 9.50639 14 9.50639H11.9852C11.8741 9.50639 11.7821 9.48139 11.7821 9.38139C11.7821 9.28927 11.5694 9.28955 11.1113 9.29017C11.0722 9.29022 11.0312 9.29028 10.9885 9.29028C10.9301 9.29028 10.8758 9.29022 10.8255 9.29016C10.2532 9.28955 10.1844 9.28948 10.1844 9.38139C10.1844 9.48139 10.0963 9.50639 9.98518 9.50639H2C1.44772 9.50639 1 9.05868 1 8.50639V7.50639ZM11.7821 6.6314C11.7821 6.5314 11.8741 6.5064 11.9852 6.5064H9.98518C10.0963 6.5064 10.1844 6.5314 10.1844 6.6314C10.1844 6.72332 10.2532 6.72324 10.8255 6.72263L10.9885 6.72252L11.1113 6.72263C11.5694 6.72324 11.7821 6.72353 11.7821 6.6314Z" fill="#FBBA72"/>
<g id="inner_3" filter="url(#filter5_i)">
<rect x="10.1836" y="6.61456" width="1.604" height="2.75902" fill="#D09452"/>
</g>
<g id="stripes_3">
<path d="M10.1836 6.65413L10.2521 6.61456H10.3476L10.1836 6.70925V6.65413Z" fill="#E4A661"/>
<path d="M10.1836 6.75887L10.4335 6.61456H10.529L10.1836 6.81399V6.75887Z" fill="#E4A661"/>
<path d="M10.1836 6.8636L10.6149 6.61456H10.7104L10.1836 6.91873V6.8636Z" fill="#E4A661"/>
<path d="M10.1836 6.96834L10.7964 6.61456H10.8918L10.1836 7.02346V6.96834Z" fill="#E4A661"/>
<path d="M10.1836 7.07354L10.9786 6.61456H11.074L10.1836 7.12866V7.07354Z" fill="#E4A661"/>
<path d="M10.1836 7.17828L11.16 6.61456H11.2555L10.1836 7.2334V7.17828Z" fill="#E4A661"/>
<path d="M10.1836 7.28301L11.3414 6.61456H11.4369L10.1836 7.33814V7.28301Z" fill="#E4A661"/>
<path d="M10.1836 7.38775L11.5228 6.61456H11.6183L10.1836 7.44287V7.38775Z" fill="#E4A661"/>
<path d="M10.1836 7.49295L11.705 6.61456H11.7876V6.622L10.1836 7.54807V7.49295Z" fill="#E4A661"/>
<path d="M11.7431 9.37358L11.7876 9.34791V9.29279L11.6477 9.37358H11.7431Z" fill="#E4A661"/>
<path d="M10.1948 9.37358L11.7876 8.45396V8.50909L10.2903 9.37358H10.1948Z" fill="#E4A661"/>
<path d="M10.3762 9.37358L11.7876 8.5587V8.61382L10.4717 9.37358H10.3762Z" fill="#E4A661"/>
<path d="M10.5584 9.37358L11.7876 8.6639V8.71903L10.6539 9.37358H10.5584Z" fill="#E4A661"/>
<path d="M10.7398 9.37358L11.7876 8.76864V8.82376L10.8353 9.37358H10.7398Z" fill="#E4A661"/>
<path d="M10.9212 9.37358L11.7876 8.87337V8.9285L11.0167 9.37358H10.9212Z" fill="#E4A661"/>
<path d="M11.1026 9.37358L11.7876 8.97811V9.03323L11.1981 9.37358H11.1026Z" fill="#E4A661"/>
<path d="M11.2848 9.37358L11.7876 9.08331V9.13844L11.3803 9.37358H11.2848Z" fill="#E4A661"/>
<path d="M11.4662 9.37358L11.7876 9.18805V9.24317L11.5617 9.37358H11.4662Z" fill="#E4A661"/>
<path d="M10.1836 9.33042L11.7876 8.40435V8.34923L10.1836 9.2753V9.33042Z" fill="#E4A661"/>
<path d="M10.1836 9.22569L11.7876 8.29961V8.24449L10.1836 9.17056V9.22569Z" fill="#E4A661"/>
<path d="M10.1836 9.12049L11.7876 8.19441V8.13929L10.1836 9.06536V9.12049Z" fill="#E4A661"/>
<path d="M10.1836 9.01578L11.7876 8.08971V8.03458L10.1836 8.96066V9.01578Z" fill="#E4A661"/>
<path d="M10.1836 8.91104L11.7876 7.98497V7.92985L10.1836 8.85592V8.91104Z" fill="#E4A661"/>
<path d="M10.1836 8.80631L11.7876 7.88023V7.82511L10.1836 8.75118V8.80631Z" fill="#E4A661"/>
<path d="M10.1836 8.7011L11.7876 7.77503V7.71991L10.1836 8.64598V8.7011Z" fill="#E4A661"/>
<path d="M10.1836 8.59637L11.7876 7.6703V7.61517L10.1836 8.54125V8.59637Z" fill="#E4A661"/>
<path d="M10.1836 8.49163L11.7876 7.56556V7.51044L10.1836 8.43651V8.49163Z" fill="#E4A661"/>
<path d="M10.1836 8.3869L11.7876 7.46082V7.4057L10.1836 8.33177V8.3869Z" fill="#E4A661"/>
<path d="M10.1836 8.28169L11.7876 7.35562V7.3005L10.1836 8.22657V8.28169Z" fill="#E4A661"/>
<path d="M10.1836 8.17696L11.7876 7.25089V7.19576L10.1836 8.12183V8.17696Z" fill="#E4A661"/>
<path d="M10.1836 8.07222L11.7876 7.14615V7.09103L10.1836 8.0171V8.07222Z" fill="#E4A661"/>
<path d="M10.1836 7.96749L11.7876 7.04141V6.98629L10.1836 7.91236V7.96749Z" fill="#E4A661"/>
<path d="M10.1836 7.86228L11.7876 6.93621V6.88109L10.1836 7.80716V7.86228Z" fill="#E4A661"/>
<path d="M10.1836 7.75755L11.7876 6.83148V6.77635L10.1836 7.70242V7.75755Z" fill="#E4A661"/>
<path d="M10.1836 7.65281L11.7876 6.72674V6.67162L10.1836 7.59769V7.65281Z" fill="#E4A661"/>
</g>
<g id="text">
<path d="M3.00124 7.66479C3.01019 7.62329 3.01466 7.59644 3.01466 7.58423C3.01466 7.559 3.00246 7.54639 2.97804 7.54639C2.94224 7.54639 2.90236 7.56185 2.85841 7.59277C2.81528 7.62288 2.78354 7.65828 2.7632 7.69897C2.74692 7.73071 2.73309 7.78361 2.72169 7.85767C2.7103 7.93172 2.70461 8.01473 2.70461 8.10669C2.70461 8.2369 2.71396 8.3488 2.73268 8.44238C2.75221 8.53597 2.78476 8.61857 2.83034 8.69019C2.87672 8.7618 2.94061 8.81551 3.02199 8.85132C3.10337 8.88713 3.20347 8.90503 3.32228 8.90503C3.39715 8.90503 3.46592 8.89608 3.52858 8.87817C3.59124 8.86108 3.64088 8.83993 3.67751 8.8147C3.71494 8.78947 3.74668 8.76221 3.77272 8.73291C3.79876 8.70361 3.81667 8.67798 3.82643 8.65601C3.83701 8.63403 3.8423 8.61694 3.8423 8.60474C3.8423 8.58439 3.83253 8.57422 3.813 8.57422C3.80405 8.57422 3.78818 8.58073 3.7654 8.59375C3.74342 8.60677 3.71901 8.62142 3.69215 8.6377C3.66611 8.65316 3.62786 8.6674 3.57741 8.68042C3.52695 8.69344 3.47283 8.69995 3.41505 8.69995C3.35239 8.69995 3.29665 8.69181 3.24782 8.67554C3.19899 8.65845 3.1583 8.63444 3.12575 8.60352C3.0932 8.57178 3.06553 8.53638 3.04274 8.49731C3.02077 8.45825 3.00368 8.41309 2.99147 8.36182C2.98008 8.30973 2.97194 8.25928 2.96706 8.21045C2.96217 8.16081 2.95973 8.10628 2.95973 8.04688C2.95973 7.97038 2.96421 7.89795 2.97316 7.82959C2.98293 7.76123 2.99228 7.7063 3.00124 7.66479Z" fill="black"/>
<path d="M3.72755 7.37671C3.78778 7.33358 3.81789 7.29533 3.81789 7.26196C3.81789 7.24813 3.81219 7.23511 3.8008 7.2229C3.7894 7.21069 3.78004 7.20296 3.77272 7.19971C3.76621 7.19564 3.75522 7.18994 3.73976 7.18262C3.65024 7.13867 3.55137 7.1167 3.44313 7.1167C3.30234 7.1167 3.18271 7.14111 3.08424 7.18994C2.98659 7.23877 2.90032 7.30957 2.82545 7.40234C2.78151 7.45768 2.75954 7.49837 2.75954 7.52441C2.75954 7.54476 2.7689 7.55493 2.78761 7.55493C2.79087 7.55493 2.79453 7.55412 2.7986 7.55249C2.80348 7.55005 2.80877 7.54679 2.81447 7.54272L2.83034 7.53052L2.84987 7.51465L2.86818 7.5C3.00653 7.37793 3.14894 7.31689 3.29543 7.31689C3.36867 7.31689 3.44842 7.33521 3.53468 7.37183C3.53957 7.37427 3.5473 7.37793 3.55788 7.38281C3.56927 7.3877 3.57741 7.39095 3.58229 7.39258C3.58717 7.39421 3.59368 7.39665 3.60182 7.3999C3.60996 7.40234 3.61728 7.40438 3.62379 7.40601C3.6303 7.40682 3.63722 7.40723 3.64455 7.40723C3.67547 7.40723 3.70314 7.39705 3.72755 7.37671Z" fill="black"/>
<path d="M4.09254 7.31201V8.53394C4.09254 8.56323 4.1015 8.58276 4.1194 8.59253C4.13812 8.60148 4.17026 8.60596 4.21584 8.60596C4.25734 8.60596 4.28786 8.60148 4.30739 8.59253C4.32773 8.58276 4.33791 8.56323 4.33791 8.53394V7.18262C4.33791 7.14762 4.32366 7.13013 4.29518 7.13013C4.27158 7.13013 4.24147 7.14071 4.20485 7.16187C4.16823 7.18221 4.13934 7.205 4.11818 7.23022C4.10109 7.25057 4.09254 7.27783 4.09254 7.31201Z" fill="black"/>
<path d="M4.97023 8.66699H4.14259C4.10923 8.66699 4.09254 8.68449 4.09254 8.71948V8.8147C4.09254 8.84969 4.10923 8.86719 4.14259 8.86719H4.8506C4.89211 8.86719 4.92181 8.85905 4.93971 8.84277C4.96169 8.82243 4.98081 8.7972 4.99709 8.76709C5.01418 8.73698 5.02272 8.71623 5.02272 8.70483C5.02272 8.67961 5.00522 8.66699 4.97023 8.66699Z" fill="black"/>
<path d="M6.52785 8.25195C6.53924 8.16569 6.54494 8.06763 6.54494 7.95776C6.54494 7.81291 6.5307 7.68758 6.50221 7.58179C6.47454 7.47599 6.43263 7.38892 6.37648 7.32056C6.32114 7.25138 6.25156 7.20011 6.16774 7.16675C6.08473 7.13338 5.98789 7.1167 5.87721 7.1167C5.76735 7.1167 5.66278 7.14111 5.56349 7.18994C5.46421 7.23796 5.37794 7.30876 5.3047 7.40234C5.26971 7.4471 5.25221 7.4821 5.25221 7.50732C5.25221 7.5236 5.26076 7.53174 5.27785 7.53174C5.28192 7.53174 5.28843 7.5293 5.29738 7.52441C5.30633 7.51953 5.31447 7.51383 5.32179 7.50732L5.36086 7.47681C5.4284 7.42391 5.49635 7.38403 5.56471 7.35718C5.63307 7.33032 5.70306 7.31689 5.77467 7.31689C5.86663 7.31689 5.94313 7.33195 6.00417 7.36206C6.06601 7.39136 6.11606 7.43001 6.15431 7.47803C6.19256 7.52604 6.22104 7.58057 6.23976 7.6416C6.25848 7.70264 6.2715 7.76489 6.27882 7.82837C6.28696 7.89103 6.29103 7.95207 6.29103 8.01147V8.16772C6.29103 8.41756 6.25848 8.60392 6.19337 8.72681C6.18198 8.74878 6.17018 8.7679 6.15797 8.78418C6.14577 8.79964 6.13966 8.81063 6.13966 8.81714C6.13966 8.83748 6.14821 8.84766 6.1653 8.84766C6.20029 8.84766 6.2422 8.82609 6.29103 8.78296C6.33172 8.74797 6.36753 8.70605 6.39845 8.65723C6.43019 8.60758 6.45664 8.5494 6.4778 8.48267C6.49977 8.41512 6.51645 8.33822 6.52785 8.25195Z" fill="black"/>
<path d="M5.48781 7.65137C5.49595 7.60742 5.50002 7.58179 5.50002 7.57446C5.50002 7.54435 5.4874 7.5293 5.46217 7.5293C5.43369 7.5293 5.39829 7.54272 5.35597 7.56958C5.31365 7.59562 5.2811 7.6298 5.25832 7.67212C5.21763 7.74943 5.19728 7.88859 5.19728 8.0896C5.19728 8.22225 5.20623 8.33659 5.22414 8.43262C5.24285 8.52865 5.27337 8.61328 5.31569 8.68652C5.35882 8.75977 5.41823 8.8147 5.49391 8.85132C5.5696 8.88713 5.66237 8.90503 5.77223 8.90503C5.82676 8.90503 5.87762 8.89648 5.92482 8.87939C5.97202 8.86312 6.00946 8.84277 6.03712 8.81836C6.06479 8.79313 6.08636 8.7679 6.10182 8.74268C6.11728 8.71745 6.12502 8.69466 6.12502 8.67432C6.12502 8.65479 6.11606 8.64502 6.09816 8.64502C6.09084 8.64502 6.077 8.6499 6.05666 8.65967C6.03631 8.66943 6.00742 8.67961 5.96999 8.69019C5.93255 8.69995 5.88942 8.70483 5.84059 8.70483C5.78525 8.70483 5.73602 8.69629 5.69289 8.6792C5.64975 8.6613 5.61435 8.63607 5.58669 8.60352C5.55902 8.57015 5.53582 8.53394 5.51711 8.49487C5.49839 8.455 5.48455 8.40861 5.4756 8.35571C5.46665 8.30282 5.46014 8.25236 5.45607 8.20435C5.45281 8.15633 5.45119 8.10303 5.45119 8.04443C5.45119 7.96875 5.45526 7.8951 5.46339 7.82349C5.47153 7.75187 5.47967 7.6945 5.48781 7.65137Z" fill="black"/>
<path d="M7.49953 7.94434C7.44907 7.92643 7.3917 7.91138 7.32741 7.89917C7.25986 7.88615 7.20819 7.87354 7.17238 7.86133C7.13657 7.84912 7.10605 7.83081 7.08083 7.8064C7.0556 7.78198 7.03892 7.75187 7.03078 7.71606C7.02345 7.68026 7.01979 7.63143 7.01979 7.56958C7.01979 7.55005 7.01572 7.53743 7.00758 7.53174C7.00026 7.52523 6.98927 7.52197 6.97462 7.52197C6.94451 7.52197 6.90911 7.53784 6.86842 7.56958C6.82773 7.60132 6.80169 7.63468 6.7903 7.66968C6.78297 7.69165 6.77931 7.71484 6.77931 7.73926C6.77931 7.76042 6.78013 7.77954 6.78175 7.79663C6.78338 7.81291 6.78745 7.83366 6.79396 7.85889C6.80047 7.88411 6.80983 7.9069 6.82204 7.92725C6.83424 7.94678 6.85174 7.96794 6.87453 7.99072C6.89813 8.01351 6.9258 8.03345 6.95753 8.05054C6.99009 8.06763 7.03078 8.0839 7.07961 8.09937C7.12925 8.11401 7.18499 8.12581 7.24684 8.13477C7.29567 8.14209 7.3388 8.15226 7.37624 8.16528C7.41448 8.17749 7.44582 8.19092 7.47023 8.20557C7.49464 8.2194 7.5154 8.2373 7.53249 8.25928C7.54958 8.28044 7.56219 8.29956 7.57033 8.31665C7.57928 8.33293 7.58579 8.35449 7.58986 8.38135C7.59474 8.4082 7.59759 8.42936 7.5984 8.44482C7.59922 8.46029 7.59962 8.48185 7.59962 8.50952C7.59962 8.55591 7.58986 8.60758 7.57033 8.66455C7.5508 8.72152 7.52028 8.76994 7.47878 8.80981C7.46575 8.82284 7.45924 8.83464 7.45924 8.84521C7.45924 8.86149 7.46779 8.86963 7.48488 8.86963C7.51662 8.86963 7.55202 8.85824 7.59108 8.83545C7.63014 8.81266 7.66758 8.78215 7.70338 8.7439C7.74001 8.70483 7.77052 8.6556 7.79494 8.59619C7.81935 8.53678 7.83156 8.47453 7.83156 8.40942C7.83156 8.37443 7.83034 8.34391 7.8279 8.31787C7.82545 8.29102 7.82017 8.26172 7.81203 8.22998C7.80389 8.19824 7.7925 8.17017 7.77785 8.14575C7.76401 8.12134 7.74448 8.09611 7.71925 8.07007C7.69403 8.04403 7.66392 8.02124 7.62892 8.00171C7.59393 7.98136 7.5508 7.96224 7.49953 7.94434Z" fill="black"/>
<path d="M6.96486 8.88062C7.01206 8.89689 7.06658 8.90503 7.12843 8.90503C7.18621 8.90503 7.23748 8.89648 7.28224 8.87939C7.32781 8.86312 7.36159 8.84318 7.38356 8.81958C7.40635 8.79517 7.42303 8.77279 7.43361 8.75244C7.44419 8.7321 7.44948 8.71541 7.44948 8.70239C7.44948 8.67635 7.43931 8.66333 7.41896 8.66333C7.41326 8.66333 7.39495 8.67025 7.36403 8.68408C7.33392 8.69792 7.30096 8.70483 7.26515 8.70483C7.22283 8.70483 7.18581 8.69873 7.15407 8.68652C7.12314 8.67432 7.08408 8.64787 7.03688 8.60718C7.0027 8.57869 6.97178 8.56445 6.94411 8.56445C6.90098 8.56445 6.85255 8.59131 6.79884 8.64502C6.78094 8.66292 6.77199 8.68286 6.77199 8.70483C6.77199 8.73169 6.78542 8.75732 6.81227 8.78174C6.86761 8.83219 6.91847 8.86515 6.96486 8.88062Z" fill="black"/>
<path d="M7.67287 7.35718C7.71518 7.32544 7.73634 7.2937 7.73634 7.26196C7.73634 7.23348 7.71641 7.20785 7.67653 7.18506C7.63747 7.16146 7.5923 7.14437 7.54103 7.13379C7.48976 7.1224 7.44175 7.1167 7.39699 7.1167C7.16017 7.1167 6.97015 7.20337 6.82692 7.37671C6.81309 7.3938 6.79844 7.41577 6.78297 7.44263C6.76751 7.46948 6.75978 7.48942 6.75978 7.50244C6.75978 7.52197 6.76873 7.53174 6.78664 7.53174C6.79803 7.53174 6.8257 7.51343 6.86964 7.47681C6.93638 7.42147 6.99904 7.38118 7.05763 7.35596C7.11704 7.32992 7.18092 7.31689 7.24928 7.31689C7.28916 7.31689 7.32985 7.32422 7.37135 7.33887C7.41367 7.35352 7.45151 7.36816 7.48488 7.38281C7.51824 7.39746 7.54469 7.40479 7.56422 7.40479C7.59515 7.40479 7.63136 7.38892 7.67287 7.35718Z" fill="black"/>
<path d="M8.95094 7.15454H8.29298C8.24741 7.15454 8.20062 7.17448 8.1526 7.21436C8.1054 7.25342 8.0818 7.288 8.0818 7.31812C8.0818 7.32869 8.08384 7.33683 8.08791 7.34253C8.09279 7.34823 8.09808 7.35189 8.10378 7.35352C8.10947 7.35433 8.11842 7.35474 8.13063 7.35474H8.83131C8.872 7.35474 8.90171 7.34619 8.92043 7.3291C8.94321 7.30876 8.96274 7.28394 8.97902 7.25464C8.9953 7.22453 9.00343 7.20378 9.00343 7.19238C9.00343 7.16715 8.98594 7.15454 8.95094 7.15454Z" fill="black"/>
<path d="M8.08302 8.21289V8.8147C8.08302 8.84969 8.09726 8.86719 8.12575 8.86719H8.85573C8.89723 8.86719 8.92734 8.85905 8.94606 8.84277C8.96803 8.82324 8.98716 8.79842 9.00343 8.76831C9.01971 8.73739 9.02785 8.71623 9.02785 8.70483C9.02785 8.67961 9.01035 8.66699 8.97536 8.66699H8.37843C8.34507 8.66699 8.32838 8.65031 8.32838 8.61694V8.21289C8.32838 8.18359 8.31943 8.16447 8.30153 8.15552C8.28363 8.14575 8.25189 8.14087 8.20631 8.14087C8.164 8.14087 8.13267 8.14575 8.11232 8.15552C8.09279 8.16447 8.08302 8.18359 8.08302 8.21289Z" fill="black"/>
<path d="M8.08302 7.50122V8.01758C8.08302 8.05094 8.09971 8.06763 8.13307 8.06763H8.75563C8.79713 8.06763 8.82725 8.05908 8.84596 8.04199C8.86794 8.02165 8.88706 7.99683 8.90334 7.96753C8.91961 7.93742 8.92775 7.91667 8.92775 7.90527C8.92775 7.88005 8.91025 7.86743 8.87526 7.86743H8.37843C8.34507 7.86743 8.32838 7.85075 8.32838 7.81738V7.50122C8.32838 7.47111 8.31943 7.45158 8.30153 7.44263C8.28363 7.43286 8.25189 7.42798 8.20631 7.42798C8.164 7.42798 8.13267 7.43286 8.11232 7.44263C8.09279 7.45239 8.08302 7.47192 8.08302 7.50122Z" fill="black"/>
<path d="M13.3725 8.0249C13.3546 7.99398 13.3456 7.96956 13.3456 7.95166C13.3456 7.93294 13.3566 7.90405 13.3786 7.86499L13.7362 7.23511C13.7525 7.20581 13.7607 7.18343 13.7607 7.16797C13.7607 7.14274 13.7476 7.13013 13.7216 7.13013C13.6964 7.13013 13.6614 7.14071 13.6166 7.16187C13.5727 7.18302 13.5397 7.20581 13.5177 7.23022C13.4925 7.25871 13.3517 7.5 13.0954 7.9541C13.0823 7.9777 13.0758 7.99845 13.0758 8.01636C13.0758 8.03833 13.084 8.06274 13.1003 8.0896L13.5336 8.81958C13.5572 8.85946 13.5853 8.87939 13.6178 8.87939C13.6488 8.87939 13.6837 8.86637 13.7228 8.84033C13.7627 8.81429 13.7826 8.78418 13.7826 8.75C13.7826 8.73128 13.7753 8.70931 13.7607 8.68408L13.3725 8.0249Z" fill="black"/>
<path d="M12.8537 8.77686C12.8789 8.75163 12.9578 8.61816 13.0905 8.37646C13.1068 8.3488 13.1149 8.32113 13.1149 8.29346C13.1149 8.26172 13.1047 8.22957 13.0844 8.19702C13.064 8.16447 13.0433 8.14819 13.0221 8.14819C13.0002 8.14819 12.9798 8.16447 12.9611 8.19702L12.6376 8.77441C12.6213 8.80452 12.6132 8.82812 12.6132 8.84521C12.6148 8.868 12.6291 8.87939 12.6559 8.87939C12.6803 8.87939 12.7137 8.86841 12.756 8.84644C12.7991 8.82446 12.8317 8.80127 12.8537 8.77686Z" fill="black"/>
<path d="M12.6352 7.26685C12.6352 7.28231 12.6413 7.29899 12.6535 7.31689L12.9379 7.79297C12.9525 7.81738 12.9652 7.83529 12.9757 7.84668C12.9863 7.85807 12.9997 7.86377 13.016 7.86377C13.0437 7.86377 13.0738 7.83732 13.1064 7.78442C13.1357 7.73641 13.1503 7.69857 13.1503 7.6709C13.1503 7.65137 13.143 7.62858 13.1283 7.60254L12.8878 7.18018C12.8683 7.14681 12.8451 7.13013 12.8183 7.13013C12.7873 7.13013 12.7491 7.14437 12.7035 7.17285C12.6579 7.20052 12.6352 7.23185 12.6352 7.26685Z" fill="black"/>
</g>
</g>
</g>
<defs>
<filter id="filter0_di" x="0" y="9" width="16" height="5" filterUnits="userSpaceOnUse" color-interpolation-filters="sRGB">
<feFlood flood-opacity="0" result="BackgroundImageFix"/>
<feColorMatrix in="SourceAlpha" type="matrix" values="0 0 0 0 0 0 0 0 0 0 0 0 0 0 0 0 0 0 127 0"/>
<feOffset/>
<feGaussianBlur stdDeviation="0.5"/>
<feColorMatrix type="matrix" values="0 0 0 0 0 0 0 0 0 0 0 0 0 0 0 0 0 0 0.25 0"/>
<feBlend mode="normal" in2="BackgroundImageFix" result="effect1_dropShadow"/>
<feBlend mode="normal" in="SourceGraphic" in2="effect1_dropShadow" result="shape"/>
<feColorMatrix in="SourceAlpha" type="matrix" values="0 0 0 0 0 0 0 0 0 0 0 0 0 0 0 0 0 0 127 0" result="hardAlpha"/>
<feOffset/>
<feGaussianBlur stdDeviation="0.15"/>
<feComposite in2="hardAlpha" operator="arithmetic" k2="-1" k3="1"/>
<feColorMatrix type="matrix" values="0 0 0 0 0 0 0 0 0 0 0 0 0 0 0 0 0 0 0.8 0"/>
<feBlend mode="normal" in2="shape" result="effect2_innerShadow"/>
</filter>
<filter id="filter1_i" x="10.1836" y="10.1082" width="1.604" height="6.75902" filterUnits="userSpaceOnUse" color-interpolation-filters="sRGB">
<feFlood flood-opacity="0" result="BackgroundImageFix"/>
<feBlend mode="normal" in="SourceGraphic" in2="BackgroundImageFix" result="shape"/>
<feColorMatrix in="SourceAlpha" type="matrix" values="0 0 0 0 0 0 0 0 0 0 0 0 0 0 0 0 0 0 127 0" result="hardAlpha"/>
<feOffset dy="4"/>
<feGaussianBlur stdDeviation="2"/>
<feComposite in2="hardAlpha" operator="arithmetic" k2="-1" k3="1"/>
<feColorMatrix type="matrix" values="0 0 0 0 0 0 0 0 0 0 0 0 0 0 0 0 0 0 0.25 0"/>
<feBlend mode="normal" in2="shape" result="effect1_innerShadow"/>
</filter>
<filter id="filter2_di" x="0" y="2" width="16" height="5" filterUnits="userSpaceOnUse" color-interpolation-filters="sRGB">
<feFlood flood-opacity="0" result="BackgroundImageFix"/>
<feColorMatrix in="SourceAlpha" type="matrix" values="0 0 0 0 0 0 0 0 0 0 0 0 0 0 0 0 0 0 127 0"/>
<feOffset/>
<feGaussianBlur stdDeviation="0.5"/>
<feColorMatrix type="matrix" values="0 0 0 0 0 0 0 0 0 0 0 0 0 0 0 0 0 0 0.25 0"/>
<feBlend mode="normal" in2="BackgroundImageFix" result="effect1_dropShadow"/>
<feBlend mode="normal" in="SourceGraphic" in2="effect1_dropShadow" result="shape"/>
<feColorMatrix in="SourceAlpha" type="matrix" values="0 0 0 0 0 0 0 0 0 0 0 0 0 0 0 0 0 0 127 0" result="hardAlpha"/>
<feOffset/>
<feGaussianBlur stdDeviation="0.15"/>
<feComposite in2="hardAlpha" operator="arithmetic" k2="-1" k3="1"/>
<feColorMatrix type="matrix" values="0 0 0 0 0 0 0 0 0 0 0 0 0 0 0 0 0 0 0.8 0"/>
<feBlend mode="normal" in2="shape" result="effect2_innerShadow"/>
</filter>
<filter id="filter3_i" x="10.1836" y="3.10817" width="1.604" height="6.75902" filterUnits="userSpaceOnUse" color-interpolation-filters="sRGB">
<feFlood flood-opacity="0" result="BackgroundImageFix"/>
<feBlend mode="normal" in="SourceGraphic" in2="BackgroundImageFix" result="shape"/>
<feColorMatrix in="SourceAlpha" type="matrix" values="0 0 0 0 0 0 0 0 0 0 0 0 0 0 0 0 0 0 127 0" result="hardAlpha"/>
<feOffset dy="4"/>
<feGaussianBlur stdDeviation="2"/>
<feComposite in2="hardAlpha" operator="arithmetic" k2="-1" k3="1"/>
<feColorMatrix type="matrix" values="0 0 0 0 0 0 0 0 0 0 0 0 0 0 0 0 0 0 0.25 0"/>
<feBlend mode="normal" in2="shape" result="effect1_innerShadow"/>
</filter>
<filter id="filter4_di" x="0" y="5.50639" width="16" height="5" filterUnits="userSpaceOnUse" color-interpolation-filters="sRGB">
<feFlood flood-opacity="0" result="BackgroundImageFix"/>
<feColorMatrix in="SourceAlpha" type="matrix" values="0 0 0 0 0 0 0 0 0 0 0 0 0 0 0 0 0 0 127 0"/>
<feOffset/>
<feGaussianBlur stdDeviation="0.5"/>
<feColorMatrix type="matrix" values="0 0 0 0 0 0 0 0 0 0 0 0 0 0 0 0 0 0 0.25 0"/>
<feBlend mode="normal" in2="BackgroundImageFix" result="effect1_dropShadow"/>
<feBlend mode="normal" in="SourceGraphic" in2="effect1_dropShadow" result="shape"/>
<feColorMatrix in="SourceAlpha" type="matrix" values="0 0 0 0 0 0 0 0 0 0 0 0 0 0 0 0 0 0 127 0" result="hardAlpha"/>
<feOffset/>
<feGaussianBlur stdDeviation="0.15"/>
<feComposite in2="hardAlpha" operator="arithmetic" k2="-1" k3="1"/>
<feColorMatrix type="matrix" values="0 0 0 0 0 0 0 0 0 0 0 0 0 0 0 0 0 0 0.8 0"/>
<feBlend mode="normal" in2="shape" result="effect2_innerShadow"/>
</filter>
<filter id="filter5_i" x="10.1836" y="6.61456" width="1.604" height="6.75902" filterUnits="userSpaceOnUse" color-interpolation-filters="sRGB">
<feFlood flood-opacity="0" result="BackgroundImageFix"/>
<feBlend mode="normal" in="SourceGraphic" in2="BackgroundImageFix" result="shape"/>
<feColorMatrix in="SourceAlpha" type="matrix" values="0 0 0 0 0 0 0 0 0 0 0 0 0 0 0 0 0 0 127 0" result="hardAlpha"/>
<feOffset dy="4"/>
<feGaussianBlur stdDeviation="2"/>
<feComposite in2="hardAlpha" operator="arithmetic" k2="-1" k3="1"/>
<feColorMatrix type="matrix" values="0 0 0 0 0 0 0 0 0 0 0 0 0 0 0 0 0 0 0.25 0"/>
<feBlend mode="normal" in2="shape" result="effect1_innerShadow"/>
</filter>
</defs>
</svg>
